<svg xmlns="http://www.w3.org/2000/svg" viewBox="0 0 128 128">
  <defs>
    <linearGradient id="g1" x1="0%" y1="0%" x2="100%" y2="100%">
      <stop offset="0%" style="stop-color:#22d3ee"/>
      <stop offset="100%" style="stop-color:#0891b2"/>
    </linearGradient>
    <linearGradient id="g2" x1="0%" y1="0%" x2="0%" y2="100%">
      <stop offset="0%" style="stop-color:#06b6d4"/>
      <stop offset="100%" style="stop-color:#0e7490"/>
    </linearGradient>
  </defs>
  <!-- Shovel/dig blade -->
  <path d="M30 85 L50 45 Q54 38 62 38 L72 38 Q80 38 84 45 L104 85 Q106 90 102 94 L32 94 Q28 90 30 85Z" fill="url(#g1)"/>
  <!-- Blade edge highlight -->
  <path d="M50 45 Q54 38 62 38 L72 38 Q80 38 84 45 L104 85" fill="none" stroke="#67e8f9" stroke-width="2" opacity="0.5"/>
  <!-- Handle -->
  <rect x="62" y="16" width="10" height="28" rx="3" fill="url(#g2)"/>
  <rect x="58" y="12" width="18" height="8" rx="4" fill="#0891b2"/>
  <!-- Search lens overlay -->
  <circle cx="67" cy="68" r="16" fill="none" stroke="#fff" stroke-width="3.5" opacity="0.8"/>
  <line x1="79" y1="80" x2="92" y2="93" stroke="#fff" stroke-width="4.5" stroke-linecap="round" opacity="0.8"/>
  <!-- DNS dots inside lens -->
  <circle cx="60" cy="65" r="2.5" fill="#fff" opacity="0.6"/>
  <circle cx="67" cy="62" r="2.5" fill="#fff" opacity="0.6"/>
  <circle cx="74" cy="65" r="2.5" fill="#fff" opacity="0.6"/>
  <circle cx="67" cy="72" r="2.5" fill="#fff" opacity="0.4"/>
</svg>
